<?xml version="1.0" standalone="no"?>
<!DOCTYPE svg PUBLIC "-//W3C//DTD SVG 20010904//EN"
 "http://www.w3.org/TR/2001/REC-SVG-20010904/DTD/svg10.dtd">
<svg version="1.0" xmlns="http://www.w3.org/2000/svg"
 width="180.000000pt" height="180.000000pt" viewBox="0 0 180.000000 180.000000"
 preserveAspectRatio="xMidYMid meet">
<metadata>
Created by potrace 1.16, written by Peter Selinger 2001-2019
</metadata>
<g transform="translate(0.000000,180.000000) scale(0.100000,-0.100000)"
fill="#b78278" stroke="none">
<path d="M510 1769 c-105 -12 -199 -39 -257 -75 -56 -35 -135 -120 -165 -179
-57 -110 -58 -122 -58 -587 0 -422 0 -429 25 -523 13 -52 34 -113 46 -137 34
-66 124 -154 188 -183 31 -14 64 -30 73 -35 50 -28 546 -39 853 -20 236 15
321 45 426 149 70 71 107 137 128 231 9 41 12 171 9 495 -4 475 -5 486 -63
613 -32 69 -121 162 -193 200 -108 57 -160 62 -574 60 -205 0 -402 -4 -438 -9z
m923 -183 c67 -34 120 -89 147 -150 39 -93 43 -146 44 -566 0 -387 -1 -408
-21 -462 -50 -135 -122 -186 -308 -218 -50 -9 -182 -11 -460 -8 -452 5 -454 6
-542 93 -45 45 -55 64 -80 141 l-28 89 0 420 c1 416 1 421 24 479 40 101 116
165 231 194 74 19 89 20 520 18 l415 -1 58 -29z"/>
<path d="M1308 1460 c-38 -29 -52 -72 -39 -113 16 -46 41 -68 88 -73 101 -13
153 107 78 182 -31 31 -91 33 -127 4z"/>
<path d="M759 1328 c-160 -56 -271 -192 -300 -364 -43 -264 175 -515 445 -514
125 1 229 44 317 132 224 222 158 592 -128 725 -69 32 -89 37 -173 40 -80 3
-105 0 -161 -19z m244 -154 c61 -21 139 -91 168 -151 48 -102 23 -241 -59
-326 -63 -66 -104 -82 -207 -82 -108 0 -149 18 -217 94 -103 115 -102 272 4
387 41 45 79 70 128 85 43 13 135 10 183 -7z"/>
</g>
</svg>
