<?xml version="1.0" standalone="no"?>
<!DOCTYPE svg PUBLIC "-//W3C//DTD SVG 20010904//EN"
 "http://www.w3.org/TR/2001/REC-SVG-20010904/DTD/svg10.dtd">
<svg version="1.0" xmlns="http://www.w3.org/2000/svg"
 width="179.000000pt" height="179.000000pt" viewBox="0 0 179.000000 179.000000"
 preserveAspectRatio="xMidYMid meet">
<metadata>
Created by potrace 1.16, written by Peter Selinger 2001-2019
</metadata>
<g transform="translate(0.000000,179.000000) scale(0.100000,-0.100000)"
fill="#b78278" stroke="none">
<path d="M760 1759 c-36 -6 -104 -23 -151 -39 -247 -83 -458 -294 -544 -545
-39 -114 -47 -178 -43 -315 4 -108 9 -138 37 -220 18 -52 48 -122 66 -156 l34
-61 -69 -192 c-39 -105 -70 -196 -70 -201 0 -22 29 -15 319 66 68 20 131 33
140 31 9 -3 57 -23 107 -45 163 -72 309 -88 479 -53 187 39 316 109 450 245
176 177 255 369 255 614 -1 411 -258 749 -650 853 -89 23 -267 32 -360 18z
m286 -140 c235 -43 448 -219 540 -447 27 -67 54 -212 54 -286 -2 -196 -80
-378 -224 -521 -94 -93 -162 -135 -283 -178 -74 -26 -107 -31 -208 -35 -149
-5 -224 11 -353 75 l-93 46 -102 -27 c-56 -14 -113 -29 -126 -33 -29 -7 -29
-11 22 128 l35 97 -36 53 c-83 124 -129 294 -119 444 6 86 18 147 37 190 4 11
20 46 33 77 86 195 277 357 484 407 89 22 247 27 339 10z"/>
<path d="M504 1326 c-76 -79 -99 -214 -55 -327 57 -148 265 -396 400 -476 112
-68 186 -95 273 -100 66 -5 83 -2 120 17 85 44 117 90 121 173 l2 52 -112 57
c-62 32 -118 55 -125 52 -7 -3 -32 -32 -55 -65 -30 -41 -49 -59 -65 -59 -68 0
-262 167 -321 277 l-28 52 41 52 c22 28 40 61 40 74 0 36 -77 238 -97 252 -9
7 -35 13 -57 13 -34 0 -46 -6 -82 -44z"/>
</g>
</svg>
