<?xml version="1.0" standalone="no"?>
<!DOCTYPE svg PUBLIC "-//W3C//DTD SVG 20010904//EN"
 "http://www.w3.org/TR/2001/REC-SVG-20010904/DTD/svg10.dtd">
<svg version="1.0" xmlns="http://www.w3.org/2000/svg"
 width="1019.000000pt" height="208.000000pt" viewBox="0 0 1019.000000 208.000000"
 preserveAspectRatio="xMidYMid meet">
<metadata>
Created by potrace 1.16, written by Peter Selinger 2001-2019
</metadata>
<g transform="translate(0.000000,208.000000) scale(0.100000,-0.100000)"
fill="#251b19" stroke="none">
<path d="M2508 2048 c-49 -13 -139 -98 -183 -172 -47 -80 -92 -198 -125 -331
l-28 -110 -92 -7 c-133 -9 -256 -28 -276 -42 -21 -16 -21 -63 -1 -84 14 -14
28 -14 109 -4 51 6 126 15 167 18 l74 7 -6 -54 c-4 -30 -12 -116 -18 -191
l-12 -137 -49 -10 c-54 -12 -159 -14 -205 -5 -24 5 -33 14 -42 44 -16 53 -84
151 -123 177 -18 12 -58 24 -88 28 -49 6 -58 4 -81 -19 -45 -42 -96 -109 -123
-161 -26 -52 -66 -190 -66 -232 0 -27 -77 -147 -156 -244 -242 -297 -575 -436
-801 -334 -107 47 -176 141 -219 295 -25 89 -26 375 -2 505 47 247 155 527
271 700 57 85 163 185 232 220 53 26 70 30 147 30 84 0 87 -1 144 -40 62 -43
92 -90 101 -156 7 -51 41 -78 78 -61 75 34 21 198 -97 295 -93 77 -238 100
-361 58 -115 -40 -250 -159 -350 -309 -107 -159 -219 -442 -268 -677 -32 -149
-35 -479 -6 -590 74 -279 238 -415 502 -415 144 0 332 71 480 182 89 66 216
194 279 280 l49 67 27 -42 c73 -116 191 -147 288 -77 89 64 147 173 167 313
l7 47 92 0 c50 0 107 3 127 6 l37 6 4 -364 c3 -325 6 -368 21 -392 19 -28 63
-36 85 -14 9 9 10 85 5 302 -8 378 21 916 51 965 11 17 38 13 63 -11 22 -20
26 -21 125 -10 57 6 132 14 169 17 l65 5 -12 -102 c-37 -302 -45 -1077 -12
-1145 14 -30 61 -44 82 -23 8 8 11 134 12 433 1 312 5 469 18 602 18 196 24
226 40 237 10 7 57 5 259 -8 85 -5 100 -4 117 11 25 22 25 46 3 74 -15 18 -35
22 -133 31 -63 5 -143 10 -177 10 l-61 0 14 63 c65 281 185 464 284 432 27 -9
42 -39 51 -103 9 -64 22 -82 60 -82 47 0 63 35 49 111 -14 76 -28 104 -72 146
-42 40 -104 57 -156 43 -136 -36 -247 -212 -322 -508 l-27 -107 -39 -3 c-21
-2 -117 -1 -212 3 l-173 7 7 32 c49 229 160 442 241 462 58 15 103 -32 103
-108 0 -46 24 -78 59 -78 40 0 51 17 51 80 0 102 -63 196 -148 220 -42 11 -44
11 -94 -2z m-937 -1060 c19 -37 61 -78 117 -114 51 -33 53 -35 47 -72 -3 -20
-8 -53 -11 -71 -8 -47 -50 -129 -87 -168 -60 -64 -119 -50 -156 38 -19 43 -21
63 -18 155 5 97 8 112 42 180 20 41 40 74 45 74 5 0 15 -10 21 -22z"/>
<path d="M5945 2036 c-176 -56 -334 -226 -466 -502 -246 -511 -264 -1087 -43
-1343 154 -179 457 -201 724 -54 182 101 392 312 512 517 31 52 50 60 43 19
-10 -59 -25 -256 -31 -415 -6 -147 -5 -170 10 -192 18 -28 66 -36 83 -14 6 7
13 92 17 188 6 158 29 434 41 485 5 24 35 35 225 90 98 28 343 85 367 85 2 0
3 -160 2 -356 -2 -389 -4 -377 56 -372 19 2 33 11 41 26 8 16 14 142 19 373 5
247 11 349 19 349 41 1 140 21 152 31 18 15 18 63 -1 79 -10 8 -41 11 -92 9
l-78 -4 -7 220 c-7 249 -20 383 -48 502 -44 188 -137 293 -261 293 -58 0 -101
-24 -163 -90 -130 -141 -238 -467 -311 -945 -14 -93 -27 -176 -30 -182 -2 -8
-21 -13 -43 -13 -22 0 -45 -6 -52 -14 -6 -8 -27 -20 -46 -26 -42 -14 -59 -48
-42 -84 9 -22 5 -33 -37 -93 -62 -88 -202 -231 -285 -293 -142 -106 -320 -168
-449 -157 -133 11 -211 55 -278 155 -153 228 -126 697 65 1132 142 323 305
487 495 498 57 4 75 0 122 -22 66 -33 123 -96 130 -145 10 -66 20 -85 47 -95
42 -15 68 14 68 75 0 106 -101 232 -224 278 -65 24 -186 28 -251 7z m1329
-110 c97 -41 134 -216 152 -728 l7 -188 -22 0 c-42 0 -225 -42 -388 -89 -90
-26 -165 -45 -167 -42 -6 10 51 328 84 476 58 253 137 460 203 534 20 21 70
50 90 51 4 0 23 -6 41 -14z"/>
<path d="M8678 2038 c-9 -7 -35 -69 -58 -138 -50 -150 -147 -350 -232 -480
-72 -111 -203 -247 -269 -278 -57 -27 -123 -28 -165 -3 -82 50 -71 194 38 538
50 158 51 163 33 183 -20 22 -67 27 -83 8 -17 -22 -111 -325 -133 -431 -37
-181 -16 -318 57 -376 47 -37 134 -64 189 -57 144 17 309 163 461 408 24 40
44 67 44 60 0 -31 -43 -457 -53 -531 -8 -55 -17 -87 -27 -92 -8 -4 -52 -26
-98 -48 -128 -62 -219 -127 -323 -231 -112 -112 -157 -190 -166 -289 -13 -138
75 -238 209 -240 213 -4 398 242 477 634 21 105 16 101 181 135 141 28 170 42
170 78 0 16 -9 37 -20 47 -19 17 -24 17 -140 -9 -67 -15 -128 -30 -137 -33
-19 -7 -18 17 22 397 28 263 57 464 86 588 25 108 25 148 0 162 -26 13 -44 13
-63 -2z m-208 -1337 c0 -20 -51 -202 -70 -252 -31 -78 -104 -191 -151 -234
-92 -82 -199 -88 -231 -11 -55 132 89 322 352 465 75 41 100 49 100 32z"/>
<path d="M9226 2028 c-9 -12 -19 -44 -22 -71 -6 -45 -10 -51 -43 -64 -137 -57
-226 -119 -286 -201 -39 -53 -42 -68 -19 -100 26 -38 55 -28 116 41 49 55 128
113 182 133 16 6 18 4 13 -17 -10 -39 -47 -328 -63 -492 -8 -84 -18 -313 -21
-509 -5 -322 -4 -360 11 -383 11 -17 25 -25 45 -25 52 0 54 10 52 263 -3 340
21 690 70 1019 28 186 30 192 65 199 52 12 208 9 264 -5 217 -52 376 -229 425
-475 22 -109 16 -283 -14 -396 -75 -282 -306 -552 -594 -693 -225 -111 -404
-130 -554 -60 -56 26 -95 21 -107 -15 -14 -39 -1 -57 64 -89 80 -39 155 -52
268 -45 355 21 755 293 943 642 243 450 119 1006 -266 1194 -111 54 -269 81
-377 63 l-58 -9 0 39 c0 22 -5 48 -10 59 -15 27 -64 25 -84 -3z"/>
<path d="M3400 1150 c-182 -98 -305 -384 -243 -565 38 -112 140 -170 298 -169
144 0 267 54 396 172 l66 61 17 -56 c23 -73 83 -134 157 -159 39 -13 80 -18
149 -18 109 1 173 20 273 81 83 50 230 199 296 301 47 73 53 87 45 110 -8 22
-17 28 -46 30 -36 3 -38 1 -89 -75 -63 -93 -184 -222 -251 -264 -105 -68 -276
-93 -354 -52 -56 29 -77 63 -82 133 -4 60 -4 60 23 60 37 0 169 45 222 76 98
58 163 146 163 221 0 122 -125 181 -251 118 -75 -38 -138 -107 -220 -240 -159
-258 -332 -386 -525 -388 -124 -1 -184 47 -192 153 -4 60 -4 60 23 60 48 0
178 50 245 95 123 82 169 184 122 274 -38 75 -145 93 -242 41z m147 -96 c10
-26 -27 -82 -78 -120 -44 -32 -157 -80 -166 -70 -6 6 20 54 57 104 56 78 170
130 187 86z m779 1 c19 -48 -76 -139 -181 -176 -32 -11 -59 -18 -62 -15 -6 6
14 43 55 100 59 81 171 135 188 91z"/>
</g>
</svg>
