<?xml version="1.0" standalone="no"?>
<!DOCTYPE svg PUBLIC "-//W3C//DTD SVG 20010904//EN"
 "http://www.w3.org/TR/2001/REC-SVG-20010904/DTD/svg10.dtd">
<svg version="1.0" xmlns="http://www.w3.org/2000/svg"
 width="242.000000pt" height="140.000000pt" viewBox="0 0 242.000000 140.000000"
 preserveAspectRatio="xMidYMid meet">
<metadata>
Created by potrace 1.16, written by Peter Selinger 2001-2019
</metadata>
<g transform="translate(0.000000,140.000000) scale(0.100000,-0.100000)"
fill="#000000" stroke="none">
<path d="M43 1380 c-30 -12 -38 -46 -19 -75 l16 -25 1170 0 1170 0 14 23 c20
29 10 66 -21 78 -31 12 -2300 11 -2330 -1z"/>
<path d="M24 715 c-15 -23 -15 -27 0 -50 l16 -25 1170 0 1170 0 16 25 c15 23
15 27 0 50 l-16 25 -1170 0 -1170 0 -16 -25z"/>
<path d="M25 96 c-20 -30 -7 -62 31 -76 30 -12 2303 -14 2320 -2 6 4 16 17 23
30 10 19 10 28 -4 48 l-15 24 -1170 0 -1170 0 -15 -24z"/>
</g>
</svg>
